<?xml version="1.0" encoding="utf-8"?><svg xmlns="http://www.w3.org/2000/svg" xmlns:xlink="http://www.w3.org/1999/xlink" width="1917" height="875" preserveAspectRatio="xMidYMid" viewBox="0 0 1917 875" style="z-index:1;margin-right:-2px;display:block;background-repeat-y:initial;background-repeat-x:initial;background-color:rgb(15, 16, 19);animation-play-state:paused" ><g transform="translate(958.5,437.5) scale(1,1) translate(-958.5,-437.5)" style="transform:matrix(1, 0, 0, 1, 0, 0);animation-play-state:paused" ><path id="path0" d="M 1845.3125658597282 16.804707333222428
c 0 29.02023927223724 -7.100696843206984 8.335600642025591 -15.436297485232576 8.335600642025591
S 1814.439970889263 45.82494660545967 1814.439970889263 16.804707333222428
s 7.100696843206984 -8.335600642025591 15.436297485232576 -8.335600642025591
S 1845.3125658597282 -12.215531939014813 1845.3125658597282 16.804707333222428
z" fill="none" stroke="none" style="animation-play-state:paused" ></path>


<circle cx="0" cy="0" r="2.859861295267823" fill="#ffffff" transform="translate(1818.5518798828125 1.5238778591156006)" style="animation-play-state:paused" ></circle>
<path id="path1" d="M 1310.2475762837926 699.7472238947694
c 0 29.866552426062213 -7.307773465951391 8.578690590464678 -15.88646405641607 8.578690590464678
S 1278.4746481709603 729.6137763208316 1278.4746481709603 699.7472238947694
s 7.307773465951391 -8.578690590464678 15.88646405641607 -8.578690590464678
S 1310.2475762837926 669.8806714687072 1310.2475762837926 699.7472238947694
z" fill="none" stroke="none" style="animation-play-state:paused" ></path>


<circle cx="0" cy="0" r="3.868548051034534" fill="#ffffff" transform="translate(1278.482666015625 698.1091918945312)" style="animation-play-state:paused" ></circle>
<path id="path2" d="M 899.8690450750609 164.9853264145144
c 0 26.018309859951046 -6.366182199775255 7.473344321475301 -13.839526521250555 7.473344321475301
S 872.1899920325596 191.00363627446544 872.1899920325596 164.9853264145144
s 6.366182199775255 -7.473344321475301 13.839526521250555 -7.473344321475301
S 899.8690450750609 138.96701655456334 899.8690450750609 164.9853264145144
z" fill="none" stroke="none" style="animation-play-state:paused" ></path>


<circle cx="0" cy="0" r="3.79955735011625" fill="#ffffff" transform="translate(885.4427490234375 157.4745635986328)" style="animation-play-state:paused" ></circle>
<path id="path3" d="M 229.84990894768302 349.91664070057146
c 0 24.01920153349417 -5.877038673088998 6.899132355365346 -12.776171028454344 6.899132355365346
S 204.29756689077433 373.9358422340656 204.29756689077433 349.91664070057146
s 5.877038673088998 -6.899132355365346 12.776171028454344 -6.899132355365346
S 229.84990894768302 325.8974391670773 229.84990894768302 349.91664070057146
z" fill="none" stroke="none" style="animation-play-state:paused" ></path>


<circle cx="0" cy="0" r="2.4186469923899283" fill="#ffffff" transform="translate(218.5830078125 357.072265625)" style="animation-play-state:paused" ></circle>
<path id="path4" d="M 1613.278144391512 138.51277372938435
c 0 23.050642105160033 -5.640050727858306 6.620929115311925 -12.26097984317023 6.620929115311925
S 1588.7561847051716 161.56341583454437 1588.7561847051716 138.51277372938435
s 5.640050727858306 -6.620929115311925 12.26097984317023 -6.620929115311925
S 1613.278144391512 115.46213162422431 1613.278144391512 138.51277372938435
z" fill="none" stroke="none" style="animation-play-state:paused" ></path>


<circle cx="0" cy="0" r="2.3934223677066218" fill="#ffffff" transform="translate(1589.310791015625 129.3938751220703)" style="animation-play-state:paused" ></circle>
<path id="path5" d="M 379.2086121702313 161.18363332844336
c 0 36.96339469424592 -9.044234871996341 10.617145284517445 -19.661380156513786 10.617145284517445
S 339.88585185720376 198.14702802268928 339.88585185720376 161.18363332844336
s 9.044234871996341 -10.617145284517445 19.661380156513786 -10.617145284517445
S 379.2086121702313 124.22023863419744 379.2086121702313 161.18363332844336
z" fill="none" stroke="none" style="animation-play-state:paused" ></path>


<circle cx="0" cy="0" r="2.2951361968326327" fill="#ffffff" transform="translate(358.9114074707031 171.83180236816406)" style="animation-play-state:paused" ></circle>
<path id="path6" d="M 1024.6065216879028 530.3283221701569
c 0 35.04179644137749 -8.574056576081725 10.065196850182897 -18.63925342626462 10.065196850182897
S 987.3280148353736 565.3701186115344 987.3280148353736 530.3283221701569
s 8.574056576081725 -10.065196850182897 18.63925342626462 -10.065196850182897
S 1024.6065216879028 495.2865257287794 1024.6065216879028 530.3283221701569
z" fill="none" stroke="none" style="animation-play-state:paused" ></path>


<circle cx="0" cy="0" r="2.9250700783367503" fill="#ffffff" transform="translate(1002.7328491210938 519.4804077148438)" style="animation-play-state:paused" ></circle>
<path id="path7" d="M 711.1969666332121 532.9372106808006
c 0 21.925210836230296 -5.364679247162731 6.2976669423214675 -11.662346189484198 6.2976669423214675
S 687.8722742542437 554.862421517031 687.8722742542437 532.9372106808006
s 5.364679247162731 -6.2976669423214675 11.662346189484198 -6.2976669423214675
S 711.1969666332121 511.0119998445703 711.1969666332121 532.9372106808006
z" fill="none" stroke="none" style="animation-play-state:paused" ></path>


<circle cx="0" cy="0" r="2.7398092584557423" fill="#ffffff" transform="translate(687.9116821289062 535.9345092773438)" style="animation-play-state:paused" ></circle>
<path id="path8" d="M 365.16856700249247 277.8532934395592
c 0 35.16124056888236 -8.603282266854196 10.099505269785361 -18.702787536639555 10.099505269785361
S 327.76299192921334 313.01453400844156 327.76299192921334 277.8532934395592
s 8.603282266854196 -10.099505269785361 18.702787536639555 -10.099505269785361
S 365.16856700249247 242.69205287067683 365.16856700249247 277.8532934395592
z" fill="none" stroke="none" style="animation-play-state:paused" ></path>


<circle cx="0" cy="0" r="2.5968440085235907" fill="#ffffff" transform="translate(330.6109313964844 296.2911071777344)" style="animation-play-state:paused" ></circle>
<path id="path9" d="M 1200.011391058995 711.2053607354999
c 0 37.21297159223504 -9.105301559802191 10.688832265854748 -19.79413382565694 10.688832265854748
S 1160.4231234076813 748.4183323277349 1160.4231234076813 711.2053607354999
s 9.105301559802191 -10.688832265854748 19.79413382565694 -10.688832265854748
S 1200.011391058995 673.9923891432649 1200.011391058995 711.2053607354999
z" fill="none" stroke="none" style="animation-play-state:paused" ></path>


<circle cx="0" cy="0" r="2.221562641944651" fill="#ffffff" transform="translate(1196.4844970703125 691.4422607421875)" style="animation-play-state:paused" ></circle>
<path id="path10" d="M 88.88971115053974 514.5366744884703
c 0 21.41109796513446 -5.238885672320133 6.149996224027983 -11.388881896348115 6.149996224027983
S 66.11194735784352 535.9477724536048 66.11194735784352 514.5366744884703
s 5.238885672320133 -6.149996224027983 11.388881896348115 -6.149996224027983
S 88.88971115053974 493.1255765233359 88.88971115053974 514.5366744884703
z" fill="none" stroke="none" style="animation-play-state:paused" ></path>


<circle cx="0" cy="0" r="3.212348142771727" fill="#ffffff" transform="translate(85.96204376220703 525.8512573242188)" style="animation-play-state:paused" ></circle>
<path id="path11" d="M 1123.9931487121273 835.8220641543339
c 0 20.237904030496818 -4.951827581930072 5.813014987483128 -10.7648425694132 5.813014987483128
S 1102.4634635733007 856.0599681848307 1102.4634635733007 835.8220641543339
s 4.951827581930072 -5.813014987483128 10.7648425694132 -5.813014987483128
S 1123.9931487121273 815.5841601238371 1123.9931487121273 835.8220641543339
z" fill="none" stroke="none" style="animation-play-state:paused" ></path>


<circle cx="0" cy="0" r="2.39677680027068" fill="#ffffff" transform="translate(1116.6832275390625 828.5957641601562)" style="animation-play-state:paused" ></circle>
<path id="path12" d="M 1444.5360049142575 397.46192750413564
c 0 29.66032746522778 -7.257314167023818 8.51945576128883 -15.776769928312648 8.51945576128883
S 1412.9824650576322 427.12225496936344 1412.9824650576322 397.46192750413564
s 7.257314167023818 -8.51945576128883 15.776769928312648 -8.51945576128883
S 1444.5360049142575 367.80160003890785 1444.5360049142575 397.46192750413564
z" fill="none" stroke="none" style="animation-play-state:paused" ></path>


<circle cx="0" cy="0" r="2.302554278279173" fill="#ffffff" transform="translate(1423.9915771484375 387.0835876464844)" style="animation-play-state:paused" ></circle>
<path id="path13" d="M 258.2072914819738 283.45794599437
c 0 25.848952125138037 -6.324743605086966 7.424699014667309 -13.749442619754275 7.424699014667309
S 230.7084062424653 309.30689811950805 230.7084062424653 283.45794599437
s 6.324743605086966 -7.424699014667309 13.749442619754275 -7.424699014667309
S 258.2072914819738 257.60899386923194 258.2072914819738 283.45794599437
z" fill="none" stroke="none" style="animation-play-state:paused" ></path>


<circle cx="0" cy="0" r="3.6913012806948537" fill="#ffffff" transform="translate(230.99746704101562 275.6886901855469)" style="animation-play-state:paused" ></circle>
<path id="path14" d="M 821.7817144482373 413.7694527564616
c 0 27.2958828476348 -6.678779845697876 7.840306775384464 -14.51908662108234 7.840306775384464
S 792.7435412060726 441.0653356040964 792.7435412060726 413.7694527564616
s 6.678779845697876 -7.840306775384464 14.51908662108234 -7.840306775384464
S 821.7817144482373 386.4735699088268 821.7817144482373 413.7694527564616
z" fill="none" stroke="none" style="animation-play-state:paused" ></path>


<circle cx="0" cy="0" r="3.4968133586551415" fill="#ffffff" transform="translate(798.5647583007812 426.874267578125)" style="animation-play-state:paused" ></circle>
<path id="path15" d="M 83.63869309736008 369.45117445315094
c 0 21.480190002882512 -5.2557911709180605 6.169841809338594 -11.425632980256655 6.169841809338594
S 60.78742713684677 390.93136445603346 60.78742713684677 369.45117445315094
s 5.2557911709180605 -6.169841809338594 11.425632980256655 -6.169841809338594
S 83.63869309736008 347.9709844502684 83.63869309736008 369.45117445315094
z" fill="none" stroke="none" style="animation-play-state:paused" ></path>


<circle cx="0" cy="0" r="2.8549616580493247" fill="#ffffff" transform="translate(74.98974609375 362.3779296875)" style="animation-play-state:paused" ></circle>
<path id="path16" d="M 864.420820667471 838.9047719301068
c 0 19.388494461319972 -4.74399332564212 5.5690356431450985 -10.313028968787219 5.5690356431450985
S 843.7947627298967 858.2932663914268 843.7947627298967 838.9047719301068
s 4.74399332564212 -5.5690356431450985 10.313028968787219 -5.5690356431450985
S 864.420820667471 819.5162774687868 864.420820667471 838.9047719301068
z" fill="none" stroke="none" style="animation-play-state:paused" ></path>


<circle cx="0" cy="0" r="2.9609721120584065" fill="#ffffff" transform="translate(857.571533203125 845.94189453125)" style="animation-play-state:paused" ></circle>
<path id="path17" d="M 1041.9542946868885 446.338322335969
c 0 32.94995248536221 -8.062222416631178 9.464348054306168 -17.526570470937347 9.464348054306168
S 1006.9011537450139 479.2882748213312 1006.9011537450139 446.338322335969
s 8.062222416631178 -9.464348054306168 17.526570470937347 -9.464348054306168
S 1041.9542946868885 413.3883698506068 1041.9542946868885 446.338322335969
z" fill="none" stroke="none" style="animation-play-state:paused" ></path>


<circle cx="0" cy="0" r="3.960796704419843" fill="#ffffff" transform="translate(1033.3935546875 460.8586730957031)" style="animation-play-state:paused" ></circle>
<path id="path18" d="M 1753.424503087401 482.1200684223519
c 0 32.436083074765094 -7.936488411910607 9.316747266155932 -17.253235678066538 9.316747266155932
S 1718.9180317312678 514.556151497117 1718.9180317312678 482.1200684223519
s 7.936488411910607 -9.316747266155932 17.253235678066538 -9.316747266155932
S 1753.424503087401 449.6839853475868 1753.424503087401 482.1200684223519
z" fill="none" stroke="none" style="animation-play-state:paused" ></path>


<circle cx="0" cy="0" r="3.598771822995165" fill="#ffffff" transform="translate(1721.171630859375 465.43707275390625)" style="animation-play-state:paused" ></circle>
<path id="path19" d="M 1314.895700365722 26.10058093971427
c 0 20.21905076782629 -4.947214549574517 5.8075996886309555 -10.754814238205473 5.8075996886309555
S 1293.386071889311 46.31963170754056 1293.386071889311 26.10058093971427
s 4.947214549574517 -5.8075996886309555 10.754814238205473 -5.8075996886309555
S 1314.895700365722 5.881530171887981 1314.895700365722 26.10058093971427
z" fill="none" stroke="none" style="animation-play-state:paused" ></path>


<circle cx="0" cy="0" r="2.3830742195475545" fill="#ffffff" transform="translate(1297.572265625 35.908451080322266)" style="animation-play-state:paused" ></circle>
<path id="path20" d="M 1878.494477568475 145.30024264439396
c 0 26.250382804718626 -6.422966005409876 7.540003571568117 -13.962969576977994 7.540003571568117
S 1850.5685384145193 171.5506254491126 1850.5685384145193 145.30024264439396
s 6.422966005409876 -7.540003571568117 13.962969576977994 -7.540003571568117
S 1878.494477568475 119.04985983967534 1878.494477568475 145.30024264439396
z" fill="none" stroke="none" style="animation-play-state:paused" ></path>


<circle cx="0" cy="0" r="2.006493393800391" fill="#ffffff" transform="translate(1870.2919921875 155.6809539794922)" style="animation-play-state:paused" ></circle>
<path id="path21" d="M 1064.4867019476746 247.30154086046525
c 0 28.181702968369315 -6.8955230667286616 8.094744469637995 -14.990267536366657 8.094744469637995
S 1034.5061668749413 275.4832438288346 1034.5061668749413 247.30154086046525
s 6.8955230667286616 -8.094744469637995 14.990267536366657 -8.094744469637995
S 1064.4867019476746 219.11983789209594 1064.4867019476746 247.30154086046525
z" fill="none" stroke="none" style="animation-play-state:paused" ></path>


<circle cx="0" cy="0" r="2.9466341997712817" fill="#ffffff" transform="translate(1064.118408203125 238.3139190673828)" style="animation-play-state:paused" ></circle>
<path id="path22" d="M 634.1527878033859 185.433866637192
c 0 34.128663989062396 -8.350630550515266 9.802914124517923 -18.15354467503319 9.802914124517923
S 597.8456984533194 219.56253062625441 597.8456984533194 185.433866637192
s 8.350630550515266 -9.802914124517923 18.15354467503319 -9.802914124517923
S 634.1527878033859 151.3052026481296 634.1527878033859 185.433866637192
z" fill="none" stroke="none" style="animation-play-state:paused" ></path>


<circle cx="0" cy="0" r="2.3931775241472146" fill="#ffffff" transform="translate(609.277587890625 172.56375122070312)" style="animation-play-state:paused" ></circle>
<path id="path23" d="M 1183.547505234625 711.9335158711825
c 0 32.501165950139374 -7.952412945246866 9.33544128355067 -17.287854228797535 9.33544128355067
S 1148.9717967770298 744.4346818213219 1148.9717967770298 711.9335158711825
s 7.952412945246866 -9.33544128355067 17.287854228797535 -9.33544128355067
S 1183.547505234625 679.4323499210432 1183.547505234625 711.9335158711825
z" fill="none" stroke="none" style="animation-play-state:paused" ></path>


<circle cx="0" cy="0" r="3.738966805925477" fill="#ffffff" transform="translate(1179.83447265625 729.2669067382812)" style="animation-play-state:paused" ></circle>
<path id="path24" d="M 44.74489092702554 406.40142855761957
c 0 33.67963474738085 -8.24076169350808 9.673937640205137 -17.914699333713216 9.673937640205137
S 8.915492259599102 440.08106330500044 8.915492259599102 406.40142855761957
s 8.24076169350808 -9.673937640205137 17.914699333713216 -9.673937640205137
S 44.74489092702554 372.7217938102387 44.74489092702554 406.40142855761957
z" fill="none" stroke="none" style="animation-play-state:paused" ></path>


<circle cx="0" cy="0" r="2.510063493345174" fill="#ffffff" transform="translate(33.859615325927734 393.38153076171875)" style="animation-play-state:paused" ></circle>
<path id="path25" d="M 824.5863326240225 51.86436991120404
c 0 27.585087318123403 -6.749542641668491 7.92337614456736 -14.67291878623585 7.92337614456736
S 795.2404950515507 79.44945722932744 795.2404950515507 51.86436991120404
s 6.749542641668491 -7.92337614456736 14.67291878623585 -7.92337614456736
S 824.5863326240225 24.279282593080634 824.5863326240225 51.86436991120404
z" fill="none" stroke="none" style="animation-play-state:paused" ></path>


<circle cx="0" cy="0" r="2.2969128897692945" fill="#ffffff" transform="translate(804.16015625 62.524803161621094)" style="animation-play-state:paused" ></circle>
<path id="path26" d="M 1442.5033861578443 503.2940780270695
c 0 23.44628368505832 -5.736856646344056 6.73457084570824 -12.471427492052296 6.73457084570824
S 1417.5605311737397 526.7403617121278 1417.5605311737397 503.2940780270695
s 5.736856646344056 -6.73457084570824 12.471427492052296 -6.73457084570824
S 1442.5033861578443 479.8477943420112 1442.5033861578443 503.2940780270695
z" fill="none" stroke="none" style="animation-play-state:paused" ></path>


<circle cx="0" cy="0" r="2.287598385394708" fill="#ffffff" transform="translate(1442.455322265625 506.7003479003906)" style="animation-play-state:paused" ></circle>
<path id="path27" d="M 1778.8308413303125 637.0687974872548
c 0 19.00110165749552 -4.64920572470635 5.457763242046586 -10.106968966752936 5.457763242046586
S 1758.6169033968067 656.0698991447503 1758.6169033968067 637.0687974872548
s 4.64920572470635 -5.457763242046586 10.106968966752936 -5.457763242046586
S 1778.8308413303125 618.0676958297593 1778.8308413303125 637.0687974872548
z" fill="none" stroke="none" style="animation-play-state:paused" ></path>


<circle cx="0" cy="0" r="3.1962521570248326" fill="#ffffff" transform="translate(1768.634521484375 642.5278930664062)" style="animation-play-state:paused" ></circle>
<path id="path28" d="M 506.79798636093534 173.32608212470018
c 0 22.116687311183792 -5.411529874013055 6.352665504276196 -11.764195378289251 6.352665504276196
S 483.2695956043569 195.44276943588397 483.2695956043569 173.32608212470018
s 5.411529874013055 -6.352665504276196 11.764195378289251 -6.352665504276196
S 506.79798636093534 151.20939481351638 506.79798636093534 173.32608212470018
z" fill="none" stroke="none" style="animation-play-state:paused" ></path>


<circle cx="0" cy="0" r="2.472866399675735" fill="#ffffff" transform="translate(489.0211181640625 183.0677032470703)" style="animation-play-state:paused" ></circle>
<path id="path29" d="M 1447.974206308437 800.2056998064411
c 0 26.25233605701236 -6.423443928843449 7.540564612120572 -13.964008540964022 7.540564612120572
S 1420.0461892265091 826.4580358634535 1420.0461892265091 800.2056998064411
s 6.423443928843449 -7.540564612120572 13.964008540964022 -7.540564612120572
S 1447.974206308437 773.9533637494287 1447.974206308437 800.2056998064411
z" fill="none" stroke="none" style="animation-play-state:paused" ></path>


<circle cx="0" cy="0" r="3.8709816678893407" fill="#ffffff" transform="translate(1423.0595703125 786.205810546875)" style="animation-play-state:paused" ></circle>
<path id="path30" d="M 643.3414636479523 748.4481027905151
c 0 35.980070846506464 -8.80363435606009 10.334701200592281 -19.138335556652372 10.334701200592281
S 605.0647925346476 784.4281736370216 605.0647925346476 748.4481027905151
s 8.80363435606009 -10.334701200592281 19.138335556652372 -10.334701200592281
S 643.3414636479523 712.4680319440087 643.3414636479523 748.4481027905151
z" fill="none" stroke="none" style="animation-play-state:paused" ></path>


<circle cx="0" cy="0" r="3.8198311726571665" fill="#ffffff" transform="translate(607.1071166992188 730.5679321289062)" style="animation-play-state:paused" ></circle>
<path id="path31" d="M 503.3438832876614 154.77000786110696
c 0 30.485262735637146 -7.4591600310601525 8.756405253853224 -16.215565284913374 8.756405253853224
S 470.9127527178346 185.2552705967441 470.9127527178346 154.77000786110696
s 7.4591600310601525 -8.756405253853224 16.215565284913374 -8.756405253853224
S 503.3438832876614 124.28474512546981 503.3438832876614 154.77000786110696
z" fill="none" stroke="none" style="animation-play-state:paused" ></path>


<circle cx="0" cy="0" r="3.664530324648663" fill="#ffffff" transform="translate(471.03204345703125 148.85537719726562)" style="animation-play-state:paused" ></circle>
<path id="path32" d="M 1119.822946248443 6.231883222430217
c 0 23.802859633548877 -5.824103952889618 6.836991596870422 -12.66109554976004 6.836991596870422
S 1094.5007551489227 30.034742855979093 1094.5007551489227 6.231883222430217
s 5.824103952889618 -6.836991596870422 12.66109554976004 -6.836991596870422
S 1119.822946248443 -17.57097641111866 1119.822946248443 6.231883222430217
z" fill="none" stroke="none" style="animation-play-state:paused" ></path>


<circle cx="0" cy="0" r="2.1993082790902045" fill="#ffffff" transform="translate(1116.7979736328125 -6.41543436050415)" style="animation-play-state:paused" ></circle>
<path id="path33" d="M 1694.0718560714458 399.7618963870128
c 0 23.00928043298732 -5.629930318709663 6.609048635006997 -12.238978953716659 6.609048635006997
S 1669.5938981640124 422.77117682000016 1669.5938981640124 399.7618963870128
s 5.629930318709663 -6.609048635006997 12.238978953716659 -6.609048635006997
S 1694.0718560714458 376.7526159540255 1694.0718560714458 399.7618963870128
z" fill="none" stroke="none" style="animation-play-state:paused" ></path>


<circle cx="0" cy="0" r="2.8539073582838634" fill="#ffffff" transform="translate(1693.838623046875 393.11029052734375)" style="animation-play-state:paused" ></circle>
<path id="path34" d="M 1585.1968617656796 14.145584205562049
c 0 26.900383193608622 -6.582008653755301 7.726705810930136 -14.308714464685437 7.726705810930136
S 1556.5794328363088 41.04596739917067 1556.5794328363088 14.145584205562049
s 6.582008653755301 -7.726705810930136 14.308714464685437 -7.726705810930136
S 1585.1968617656796 -12.754798988046574 1585.1968617656796 14.145584205562049
z" fill="none" stroke="none" style="animation-play-state:paused" ></path>


<circle cx="0" cy="0" r="2.765391858677718" fill="#ffffff" transform="translate(1562.9893798828125 26.4996280670166)" style="animation-play-state:paused" ></circle>
<path id="path35" d="M 1543.9338105301338 756.4645267351723
c 0 35.91167077939426 -8.786898169426253 10.315054372804733 -19.101952542230986 10.315054372804733
S 1505.7299054456719 792.3761975145666 1505.7299054456719 756.4645267351723
s 8.786898169426253 -10.315054372804733 19.101952542230986 -10.315054372804733
S 1543.9338105301338 720.552855955778 1543.9338105301338 756.4645267351723
z" fill="none" stroke="none" style="animation-play-state:paused" ></path>


<circle cx="0" cy="0" r="3.8949334769703" fill="#ffffff" transform="translate(1509.64892578125 775.6202392578125)" style="animation-play-state:paused" ></circle>
<path id="path36" d="M 888.9346886274119 16.162815941046087
c 0 35.596428596867455 -8.709764443914375 10.22450608633427 -18.934270530248646 10.22450608633427
S 851.0661475669145 51.759244537913546 851.0661475669145 16.162815941046087
s 8.709764443914375 -10.22450608633427 18.934270530248646 -10.22450608633427
S 888.9346886274119 -19.433612655821367 888.9346886274119 16.162815941046087
z" fill="none" stroke="none" style="animation-play-state:paused" ></path>


<circle cx="0" cy="0" r="2.0387850792794224" fill="#ffffff" transform="translate(851.1512451171875 10.622509002685547)" style="animation-play-state:paused" ></circle>
<path id="path37" d="M 786.3426965331812 83.19788497063851
c 0 20.411381025902106 -4.994274080805834 5.862843486163372 -10.857117566969205 5.862843486163372
S 764.6284613992427 103.60926599654061 764.6284613992427 83.19788497063851
s 4.994274080805834 -5.862843486163372 10.857117566969205 -5.862843486163372
S 786.3426965331812 62.78650394473641 786.3426965331812 83.19788497063851
z" fill="none" stroke="none" style="animation-play-state:paused" ></path>


<circle cx="0" cy="0" r="2.95007744781173" fill="#ffffff" transform="translate(779.03564453125 90.53411102294922)" style="animation-play-state:paused" ></circle>
<path id="path38" d="M 1464.500390886123 256.45391030710203
c 0 33.36368511473622 -8.163454868499288 9.583186149977426 -17.746641018476716 9.583186149977426
S 1429.0071088491693 289.81759542183823 1429.0071088491693 256.45391030710203
s 8.163454868499288 -9.583186149977426 17.746641018476716 -9.583186149977426
S 1464.500390886123 223.0902251923658 1464.500390886123 256.45391030710203
z" fill="none" stroke="none" style="animation-play-state:paused" ></path>


<circle cx="0" cy="0" r="2.6730144483634297" fill="#ffffff" transform="translate(1463.309814453125 241.5950164794922)" style="animation-play-state:paused" ></circle>
<path id="path39" d="M 466.11299056834935 288.1206306868327
c 0 36.925511547086884 -9.034965591308492 10.606263955014319 -19.64122954632281 10.606263955014319
S 426.83053147570376 325.0461422339196 426.83053147570376 288.1206306868327
s 9.034965591308492 -10.606263955014319 19.64122954632281 -10.606263955014319
S 466.11299056834935 251.19511913974583 466.11299056834935 288.1206306868327
z" fill="none" stroke="none" style="animation-play-state:paused" ></path>


<circle cx="0" cy="0" r="2.0680045103026594" fill="#ffffff" transform="translate(465.6431884765625 299.7818908691406)" style="animation-play-state:paused" ></circle>
<path id="path40" d="M 1870.120126788187 356.2597525357343
c 0 21.98110882519863 -5.378356414676259 6.313722747663435 -11.692079162339695 6.313722747663435
S 1846.7359684635076 378.24086136093297 1846.7359684635076 356.2597525357343
s 5.378356414676259 -6.313722747663435 11.692079162339695 -6.313722747663435
S 1870.120126788187 334.2786437105357 1870.120126788187 356.2597525357343
z" fill="none" stroke="none" style="animation-play-state:paused" ></path>


<circle cx="0" cy="0" r="2.635694209542384" fill="#ffffff" transform="translate(1846.8914794921875 350.7669677734375)" style="animation-play-state:paused" ></circle>
<path id="path41" d="M 114.10396443553692 118.65115921184609
c 0 36.75276703878844 -8.992698318001427 10.556645851566893 -19.549344169568318 10.556645851566893
S 75.0052760964003 155.40392625063453 75.0052760964003 118.65115921184609
s 8.992698318001427 -10.556645851566893 19.549344169568318 -10.556645851566893
S 114.10396443553692 81.89839217305766 114.10396443553692 118.65115921184609
z" fill="none" stroke="none" style="animation-play-state:paused" ></path>


<circle cx="0" cy="0" r="3.678062611284106" fill="#ffffff" transform="translate(92.23383331298828 107.69833374023438)" style="animation-play-state:paused" ></circle>
<path id="path42" d="M 1359.4075763043845 248.8478602838118
c 0 29.15922734259656 -7.134704562550221 8.375522747341565 -15.510227309891786 8.375522747341565
S 1328.3871216846007 278.00708762640835 1328.3871216846007 248.8478602838118
s 7.134704562550221 -8.375522747341565 15.510227309891786 -8.375522747341565
S 1359.4075763043845 219.68863294121525 1359.4075763043845 248.8478602838118
z" fill="none" stroke="none" style="animation-play-state:paused" ></path>


<circle cx="0" cy="0" r="2.286448454364473" fill="#ffffff" transform="translate(1353.062255859375 262.74420166015625)" style="animation-play-state:paused" ></circle>
<path id="path43" d="M 1757.4706469897437 637.0484437259228
c 0 21.31101116898407 -5.214396349857804 6.12124788896351 -11.335644238821313 6.12124788896351
S 1734.7993585121012 658.3594548949069 1734.7993585121012 637.0484437259228
s 5.214396349857804 -6.12124788896351 11.335644238821313 -6.12124788896351
S 1757.4706469897437 615.7374325569386 1757.4706469897437 637.0484437259228
z" fill="none" stroke="none" style="animation-play-state:paused" ></path>


<circle cx="0" cy="0" r="2.546431746401522" fill="#ffffff" transform="translate(1734.82373046875 634.7266845703125)" style="animation-play-state:paused" ></circle>
<path id="path44" d="M 1845.1855128499355 810.920683057885
c 0 26.00678869269886 -6.363363190766742 7.470035050030524 -13.833398240797266 7.470035050030524
S 1817.5187163683408 836.9274717505838 1817.5187163683408 810.920683057885
s 6.363363190766742 -7.470035050030524 13.833398240797266 -7.470035050030524
S 1845.1855128499355 784.9138943651861 1845.1855128499355 810.920683057885
z" fill="none" stroke="none" style="animation-play-state:paused" ></path>


<circle cx="0" cy="0" r="3.8319435015005685" fill="#ffffff" transform="translate(1844.5474853515625 800.5660400390625)" style="animation-play-state:paused" ></circle></g></svg>